<?xml version="1.0" encoding="UTF-8" standalone="no"?>
<svg
   xmlns:dc="http://purl.org/dc/elements/1.1/"
   xmlns:cc="http://creativecommons.org/ns#"
   xmlns:rdf="http://www.w3.org/1999/02/22-rdf-syntax-ns#"
   xmlns:svg="http://www.w3.org/2000/svg"
   xmlns="http://www.w3.org/2000/svg"
   viewBox="0 0 362.68264 362.67065"
   height="362.67065"
   width="362.68265"
   xml:space="preserve"
   id="svg2"
   version="1.1"><metadata
     id="metadata8"><rdf:RDF><cc:Work
         rdf:about=""><dc:format>image/svg+xml</dc:format><dc:type
           rdf:resource="http://purl.org/dc/dcmitype/StillImage" /><dc:title></dc:title></cc:Work></rdf:RDF></metadata><defs
     id="defs6"><linearGradient
       id="linearGradient42"
       spreadMethod="pad"
       gradientTransform="matrix(209.6933,-209.6933,-209.6933,-209.6933,456.1051,618.59406)"
       gradientUnits="userSpaceOnUse"
       y2="0"
       x2="1"
       y1="0"
       x1="0"><stop
         id="stop36"
         offset="0"
         style="stop-opacity:1;stop-color:#fce990" /><stop
         id="stop38"
         offset="0.5"
         style="stop-opacity:1;stop-color:#fac717" /><stop
         id="stop40"
         offset="1"
         style="stop-opacity:1;stop-color:#f8a517" /></linearGradient><linearGradient
       id="linearGradient64"
       spreadMethod="pad"
       gradientTransform="matrix(209.70924,-209.70924,-209.70924,-209.70924,456.35761,618.86011)"
       gradientUnits="userSpaceOnUse"
       y2="0"
       x2="1"
       y1="0"
       x1="0"><stop
         id="stop58"
         offset="0"
         style="stop-opacity:1;stop-color:#fce990" /><stop
         id="stop60"
         offset="0.5"
         style="stop-opacity:1;stop-color:#fac717" /><stop
         id="stop62"
         offset="1"
         style="stop-opacity:1;stop-color:#f8a517" /></linearGradient></defs><g
     transform="matrix(1.3333333,0,0,-1.3333333,-607.16132,825.76531)"
     id="g10"><g
       id="g100"><g
         id="g34"><path
           id="path44"
           style="fill:url(#linearGradient42);stroke:none"
           d="M 464.862,483.322 591.373,356.811 717.861,483.322 591.357,609.817 Z M 591.373,347.321 455.371,483.322 591.357,619.324 727.383,483.322 Z" /></g><path
         d="m 623.592,484.695 9.705,13.794 9.704,13.81 19.409,-27.604 z m -24.757,-73.928 9.742,31.54 11.048,35.751 h 3.937 37.659 z m -7.462,-1.709 -11.551,37.399 -9.765,31.601 h 1.891 19.425 19.432 1.892 l -9.765,-31.601 z m -69.84,69 h 37.629 3.952 l 11.032,-35.751 9.765,-31.54 z m 18.204,34.241 9.72,-13.81 9.705,-13.794 h -38.85 z m 45.242,2.441 -9.704,-13.794 -9.719,-13.794 -9.721,13.794 -9.704,13.794 z m 6.394,-2.441 9.705,-13.81 9.727,-13.794 h -19.432 -19.425 l 9.705,13.794 z m 45.25,2.441 -9.705,-13.794 -9.734,-13.794 -9.705,13.794 -9.712,13.794 z m 26.367,-19.333 -15.929,22.659 -2.321,3.312 h -3.448 -43.525 -4.669 -1.725 -1.725 -4.669 -43.517 -3.449 l -2.334,-3.312 -15.931,-22.659 -10.086,-14.343 2.793,-3.006 h 0.045 l 75.135,-81.07 v -0.015 l 3.738,-4.029 3.738,4.029 v 0.015 l 75.143,81.07 h 0.03 l 2.808,3.006 z"
         style="fill:url(#linearGradient64);stroke:none"
         id="path66" /></g></g></svg>